<svg width="100" height="100" viewBox="0 0 100 100" fill="none" xmlns="http://www.w3.org/2000/svg">
  <rect width="100" height="100" rx="22" fill="#080a12"/>
  <g transform="translate(50 50) scale(0.78) translate(-50 -50)">
    <g stroke="#9277F0" fill="none" stroke-width="1.7">
      <ellipse cx="50" cy="50" rx="40" ry="13"/>
      <ellipse cx="50" cy="30" rx="34.6" ry="11.3"/>
      <ellipse cx="50" cy="70" rx="34.6" ry="11.3"/>
      <ellipse cx="50" cy="15.4" rx="20" ry="6.5"/>
      <ellipse cx="50" cy="84.6" rx="20" ry="6.5"/>
      <ellipse cx="50" cy="50" rx="20" ry="40"/>
      <ellipse cx="50" cy="50" rx="34.6" ry="40"/>
      <line x1="50" y1="10" x2="50" y2="90"/>
    </g>
    <circle cx="50" cy="50" r="40" fill="none" stroke="#9277F0" stroke-width="2.6"/>
    <path d="M50,38 Q51.8,48.2 62,50 Q51.8,51.8 50,62 Q48.2,51.8 38,50 Q48.2,48.2 50,38 Z" fill="#c2b4fb"/>
  </g>
</svg>
